<svg xmlns="http://www.w3.org/2000/svg" id="Layer_1" viewBox="0 0 358 166.4"><defs><style> .st0 { fill: #f68722; } </style></defs><path class="st0" d="M19.5,54.4h7.2c.8,0,1.3-.4,1.6-1.1L46,7.2c.4-.9,0-1.6-1-1.6h-9.2c-.8,0-1.3.4-1.6,1.2l-11.1,31.8L11.9,6.7c-.3-.8-.8-1.2-1.5-1.2H1.2C.2,5.6-.2,6.3.1,7.2l17.8,46.2c.3.7.8,1.1,1.6,1.1h0ZM60.1,55.5c7.9,0,12.5-3.3,14.7-5.7l.9,3.5c.3.8.8,1.2,1.6,1.2h6c.9,0,1.4-.5,1.4-1.4v-23.6c0-11.7-6.7-17.7-17.7-17.7s-11.2,1.2-17,5.3c-.8.6-.8,1.3-.3,1.9l3.6,5.1c.5.8,1.2.8,1.9.3,3.3-2.2,6.5-3.3,11.3-3.3s7.6,3.3,7.6,7.1v.8h-9.5c-12,0-18.1,5.2-18.1,13.4s6.9,13.1,13.6,13.1h0ZM63.2,46.8c-4.1,0-6.6-1.7-6.6-5.5s3.5-5.1,8.8-5.1h8.8v1.3c0,5.4-4.8,9.3-11,9.3h0ZM107.9,55.5c9.4,0,14.7-6.5,14.7-13.1s-5.2-10.9-12.2-13.1c-5.6-1.7-7.5-2.9-7.5-4.8s1.5-3.1,4.4-3.1,5.2,1.3,7,2.6c.7.6,1.3.6,1.9,0l4.7-5c.6-.6.6-1.3,0-1.9-3.8-3.5-9-5.2-13.3-5.2-10.2,0-14.9,6.2-14.9,12.5s6.4,11.2,12.1,13.1c5.6,1.8,7.6,3,7.6,5.1s-1.9,3.4-4.7,3.4-7.4-1.7-10.5-3.9c-.8-.6-1.4-.6-1.9.2l-4,4.9c-.6.7-.5,1.4.2,1.9,4.5,4,9.9,6.4,16.5,6.4h0ZM131.9,54.4h7.9c.9,0,1.4-.5,1.4-1.4v-30.7h7c.9,0,1.4-.5,1.4-1.4v-7.1c0-.9-.5-1.4-1.4-1.4h-7V3.1c0-.9-.6-1.4-1.5-1.3l-8,1.5c-.8.2-1.3.7-1.3,1.5v7.5h-3.8c-.9,0-1.4.5-1.4,1.4v7.1c0,.9.5,1.4,1.4,1.4h3.8v30.7c0,.9.5,1.4,1.4,1.4h0ZM173,68.1c12.6,0,20.7-9,20.7-20.4V13.8c0-.8-.6-1.4-1.4-1.4h-6.1c-.8,0-1.4.5-1.6,1.1l-.7,2.9c-2.7-2.9-7.3-4.8-11.7-4.8-12,0-20.4,8.8-20.4,21.4s8.4,20.6,20.4,20.6,8.3-2.7,10.8-5.1v.3c0,5.1-4,9.2-10.8,9.2s-7.9-1.1-11.1-2.8c-.8-.4-1.5-.2-1.9.6l-3.2,6.2c-.3.8-.2,1.5.5,1.9,3.9,2.3,10.6,4.2,16.4,4.2h0ZM173.1,43.6c-6.2,0-10.6-4.5-10.6-10.8s4.4-11.2,10.6-11.2,10.6,4.9,10.6,11.1-4.4,10.8-10.6,10.8h0ZM223.2,55.5c12.3,0,22.3-9.7,22.3-21.8s-9.9-21.9-22.2-21.9-22.1,9.7-22.1,21.9,9.8,21.8,22,21.8h0ZM223.4,45.3c-6.3,0-11.5-5-11.5-11.6s5.2-11.7,11.5-11.7,11.5,4.9,11.5,11.7-5.1,11.6-11.5,11.6h0ZM271.8,55.5c5.6,0,10.4-1.9,14.1-4.9.6-.6.7-1.3.2-1.9l-3.7-5.2c-.6-.8-1.2-.8-1.9-.3-2.3,1.7-4.9,2.8-8.3,2.8-5.1,0-9.7-3.3-11.1-8.7h28.9c.8,0,1.4-.4,1.5-1.3,0-.8,0-1.7,0-2.4,0-12.5-7.7-21.8-20.7-21.8s-20.6,9.9-20.6,21.9,9,21.8,21.6,21.8h0ZM280.9,29.3h-19.9c1.3-5.1,5.2-8.3,10-8.3s8.7,3.1,9.9,8.3h0ZM317.6,55.3c5.1,0,8.8-2,11.5-4.9l.7,2.8c.3.8.8,1.2,1.6,1.2h6.1c.9,0,1.4-.5,1.4-1.4V1.4c0-.9-.5-1.4-1.4-1.4h-7.9c-.9,0-1.4.5-1.4,1.4v14.3c-2.6-2.4-6-4-10.6-4-11.9,0-21.4,9.7-21.4,21.8s9.5,21.8,21.4,21.8h0ZM317.8,45.1c-6.4,0-10.9-4.8-10.9-11.5s4.6-11.7,11-11.7,11.1,4.9,11.1,11.7-4.8,11.5-11.2,11.5h0Z"></path><path class="st0" d="M201.7,136.2h8.2c.9,0,1.4-.5,1.4-1.4v-29.7l20,30.2c.4.6.9.9,1.7.9h8.2c.9,0,1.4-.5,1.4-1.4v-46.1c0-.9-.5-1.4-1.4-1.4h-8.2c-.9,0-1.4.5-1.4,1.4v28.4l-19-28.9c-.4-.6-1-.9-1.7-.9h-9.2c-.9,0-1.4.5-1.4,1.4v46.1c0,.9.5,1.4,1.4,1.4h0ZM271.8,137.3c5.6,0,10.4-1.9,14.1-4.9.6-.6.7-1.3.2-1.9l-3.7-5.2c-.6-.8-1.2-.8-1.9-.3-2.3,1.7-4.9,2.8-8.3,2.8-5.1,0-9.7-3.3-11.1-8.7h28.9c.8,0,1.4-.4,1.5-1.3,0-.8,0-1.7,0-2.4,0-12.5-7.7-21.8-20.7-21.8s-20.6,9.9-20.6,21.9,9,21.8,21.6,21.8h0ZM280.9,111.1h-19.9c1.3-5.1,5.2-8.3,10-8.3s8.7,3.1,9.9,8.3h0ZM317.6,137.2c5.1,0,8.8-2,11.5-4.9l.7,2.8c.3.8.8,1.2,1.6,1.2h6.1c.9,0,1.4-.5,1.4-1.4v-51.7c0-.9-.5-1.4-1.4-1.4h-7.9c-.9,0-1.4.5-1.4,1.4v14.3c-2.6-2.4-6-4-10.6-4-11.9,0-21.4,9.7-21.4,21.8s9.5,21.8,21.4,21.8h0ZM317.8,126.9c-6.4,0-10.9-4.8-10.9-11.5s4.6-11.7,11-11.7,11.1,4.9,11.1,11.7-4.8,11.5-11.2,11.5h0ZM348.2,136.2h8.5c.9,0,1.4-.5,1.4-1.4v-7.6c0-.9-.5-1.4-1.4-1.4h-8.5c-.9,0-1.4.5-1.4,1.4v7.6c0,.9.5,1.4,1.4,1.4h0Z"></path><path class="st0" d="M333.7,166.4h-128.2c-3,0-5.5-2.5-5.5-5.5s2.5-5.5,5.5-5.5h128.2c3,0,5.5,2.5,5.5,5.5s-2.5,5.5-5.5,5.5Z"></path><path class="st0" d="M186.3,92.6v-.5s0-.9,0-.9h-.2l-1.4-.3-.6-.3v-.5s-.1-.3-.1-.3h0c0-.1,0-.2,0-.2h.1v-.3h-.1l-.2.2h-.2c0,0-.2,0-.2,0l-.2-.2h-.3c0,0-.8-.3-.8-.3l-.6-.2h-.1c0-.1,0-.3,0-.3h0c0,0,0-.1,0-.1l-.5-.3h0s-.6-2.6-.6-2.6l-.2-.3-.4-.2-1.9-.3-4.5.7-2.8.8-.5.4h-.2s-.2,0-.2,0l-.3-.3h-.2c0,0-3.7,0-3.7,0h-1.8c0,0-1.3.7-1.3.7h-.4s-.7.5-.7.5l-3,1.2-.7.6h-.9c0,.1-.4.3-.4.3l-.3.4-.3.4-.3.3-.7.3-.4.4-.7.8-.4.9-.5,2.1-.4.8-.4.3-.9.2-.4.3-.3.3-3.8,3.3-.7.3h-.8c0,0-.4.2-.4.2l-.8.7-.4.2h-.7s-.8-.2-.8-.2l-.4-.6.3-.9v-.2c-.1,0-.3.2-.3.2l-1.2-.2-.2.3v.6c-.1,0-.2.7-.2.7v.6s-.2,1-.2,1l-.8,2-.2,1v.5s-.4,1.5-.4,1.5l-.8,5.9-.4.8v.2l-.2.9-1.1,3.3-1.9,3.4-2.3,3.3-2.7,3.2-.6.4h-.7c0,.1-.9,0-.9,0v.2c-.1,0-.2.2-.2.2l.2.5.4,1.2v.5c0,0,0,0,0,0h0c0,.1,0,.3,0,.3v.2s0,.2,0,.2h0c0,.1.1.2.1.2l.5.7v.3c.1,0,0,.2,0,.2h-.2c0,0-.1.1-.1.1h0s-.5-.3-.5-.3h-.6c0-.1-.4-.1-.4-.1l-.2.2-1.2.4-.5.4.2.8h.3s0-.1,0-.1h.4c0,0,.5,0,.5,0h.5c0-.1.4-.4.4-.4l.6.4.5.4.3.6v1c.1,0,.4.4.4.4l1.3.4.5.3.2.2h-.6s-.3.2-.3.2l-.2.3v.3s0,.3,0,.3v.3s.1.3.1.3v.2c.1,0,.3.1.3.1h.2c0,0,.8,0,.8,0l.2.2v.6c0,0-.4-.4-.4-.4h-.5c0-.1-1.7-.2-1.7-.2h-.5c0,.1-1,.6-1,.6l1.5,1.4.5.3h.3s.6,0,.6,0h.3s.8.4.8.4h.9c0,.1.5.4.5.4l.4.5.2.7-.3.7-.6.2h-.6s-.4,0-.4,0l-.4-.2h-1c0,.1-.5,0-.5,0l-.3-.4-.4-1-.3-.5-.8-.7-.9-.4-1.8-.2v-.2h.1c0-.1.3-.3.3-.3h.2c0,0-.2-.5-.2-.5l-.3-.4-.3-.3-.3-.2h-.4s-5.1.5-5.1.5l-2,1.2-.2.3v.5c0,0,.3.3.3.3l.6.5.2.3.3.5.3.4.3.2,1.1.2h.4s.8-.3.8-.3h.3s.7.7.7.7l1.1.6.5.5h.2c0,0,.2,0,.2,0l.2-.2h.7c0,0,.3-.2.3-.2l.2-.3.6-1,.3-.2h.8c0,0,.3.2.3.2l1.1.9.4.2h.4c0,.1,1.7.1,1.7.1h.4c0-.1.2-.4.2-.4h.2c0,.1,0,.4,0,.4v.7s.2.4.2.4h0c0,0,.5.1.5.1h.2c0,.1.5.4.5.4h.2c0,0,.1.1.1.1h.7s.1,0,.1,0l.4-.2h0c0-.1,0-.5,0-.5h0s0-.3,0-.3l-.4-.5h0c0,0,0-.3,0-.3v-.5c.1,0,.2-.2.2-.2l-.2-.3,1-.6.6-.2h.4c0-.1.5-.2.5-.2h.3s.1.3.1.3v.4s0,.1,0,.1l-.2.4h0c0,.1,0,.3,0,.3h.1c0,0,.2.3.2.3h.1s.1,0,.1,0h.1s.4,0,.4,0h.6c0,.1,0,.1,0,.1h.3s.3-.1.3-.1h.2c0-.1,1.5-1.9,1.5-1.9l.6-.3h.3s.1,0,.1,0h.2c0,0,0,.1,0,.1l.2.2.2.3v.4s0,.3,0,.3v.2s0,.3,0,.3h0c0,.1,0,.4,0,.4v.2c0,0-.8-.4-.8-.4h-.2s-.1.4-.1.4l.4.2h1.3s.2,0,.2,0h.2s.4.2.4.2l.4.2h.4c0-.1.2-.4.2-.4l.3-.3.3-.4v-.2c.1,0,.3-.2.3-.2l.2-.3v-.2c0,0,.1-.2.1-.2v-.2s0,0,0,0v-.2c.1,0,.4.2.4.2h0s0,0,0,0l.6.4v.3c.1,0,.4.4.4.4v.5c0,0-.3.5-.3.5v.2s0,.4,0,.4v.3c.1,0,.8.7.8.7v.3c0,0,.3.7.3.7v.2c0,0,0,0,0,0h0l.3.2h.7c0,0,0,0,0,0h.3s.3.4.3.4v1h.3c0,0,.7,0,.7,0h2.2c0,0,.4,0,.4,0l.8-.5h0s.3-.2.3-.2h.4s.2.2.2.2h.2c0,.1.3.5.3.5h0c0,0,.1.7.1.7v.7c0,0,.5.4.5.4l1.1.3h.1c0,0,.1.2.1.2l.2.2h.1c0,0,0,.2,0,.2h.8c0,0,.4-.2.4-.2h.3l.3.2.4.5.2.2h0s.3,0,.3,0h.3c0,0,0,0,0,0h.2s.2.4.2.4h0c0,.1-.1.3-.1.3h-.1c0,.1,0,.4,0,.4l.4.4h-.1c0,0,0,0,0,0h0s-.1,0-.1,0h-.2s-.2,0-.2,0h0c0,0,0,.2,0,.2h0c0,0,0,.2,0,.2h0s-.1.4-.1.4v.2c0,0,0,0,0,0v.2c-.1,0-.4-.2-.4-.2h-.1c0,0,0,.3,0,.3h0c0,.1,0,.3,0,.3v.2s.2.4.2.4l-.3.7-.7,1.2h.4c0-.1.2-.1.2-.1h.2c0,0,0,.2,0,.2l-.2.3-.3.7-.2.3h0c0,0-.2.1-.2.1h-.2c0,0,0,0,0,0l-1.1,1.2-.3.3v.4s0,.2,0,.2h0c0,0,.3.4.3.4l.4.3h0s.3.2.3.2h.3c0,0,0,.3,0,.3h0c0,0,0,.4,0,.4v.4c-.1,0,0,0,0,0h.2c0,0,.1.2.1.2h.1s0,0,0,0h0s.1,0,.1,0l.3-.4h0s.2-.2.2-.2h.1s0,0,0,0l.4.4h.2c0,.1,1.6,0,1.6,0h.4c0,.1,0,.1,0,.1h1.4s.1,0,.1,0h.2s0-.4,0-.4v-.2c-.1,0-.3-.1-.3-.1v-.2c-.1,0-.2-.4-.2-.4h.3c0,0,.3-.2.3-.2v-.4c0,0,0-.3,0-.3v-.3s.1-.3.1-.3h.3c0-.1.4-.1.4-.1l.2-.3v-.3c.1,0,.1-.2.1-.2l-.2-.6v-.2s.1-.2.1-.2h0c0-.1-.6-.3-.6-.3l-.5-.3v-.2c-.1,0-.2-.2-.2-.2v-.8c0,0,.2-.3.2-.3v-.2s-.7,0-.7,0l-.5-.2h-.3s-.3,0-.3,0l-.5.2h-.3s0-.7,0-.7l-.3-.8v-.7c-.1,0,.4-.3.4-.3h.3c0,.1.2.4.2.4l.3.2h.4s.2-.3.2-.3l.4-.7.3-.3,1.7-1.4,1.1-.6.3-.4-.4-.4.4-.4h.1c0,0-.4-.2-.4-.2l-1,.6-.5-.2v-.5c-.1,0,0-.7,0-.7l.2-.6.2-.3.4-.5,1-1.7.2-.2.5-.3.2-.3v-.4c0,0,.1-.7.1-.7v-.3c.1,0-.2-.3-.2-.3v-.5s.2-.6.2-.6v-.6c0,0,0-.5,0-.5v-1c-.1,0-.9-.9-.9-.9l-1.3-1.7v-.4c0,0,0-.4,0-.4l.2-.7-1.3-.5-.4-.5.3-.8-.2-.2-.4-.3h-.2c0,0-.5,0-.5,0h-.2c0,0,0-.4,0-.4l.4-.4v-.6s-.2-.6-.2-.6l-.4-.3v-.3c0,0,.4-.2.4-.2h.8c0-.1.4-.3.4-.3l.4-.3h.3c0-.1.8-.3.8-.3l.6.2h.5c0,.1.3.2.3.2l-.3-.4-.7-.7-.2-.2.6-.3.6.3.6.5.6.3h.6c0-.1.2,0,.2,0h.1c0,.1.2.5.2.5h0c0,0,.7.2.7.2l.3.2v.5s.8-.2.8-.2v-.3c0,0,0-.7,0-.7l1.2.3h.7c0-.1.9-.8.9-.8l1.9-.6h1.7s.5-.3.5-.3l.5-.5.4-.8.2-.2h.1s0-.1,0-.1v-.4s0-.2,0-.2h0c0-.1-.5-.7-.5-.7l-1.2-.7h-.4c0-.1-.3-.3-.3-.3v-.5s0-.3,0-.3h.2c0,0,.2,0,.2,0h.2c0-.1.1-.3.1-.3l.2-.4v-.2c0,0,.4-.3.4-.3l.3-.2h1.2c0-.1.2-.3.2-.3l.4-.8.4-.4.8-.4.4-.3.5-.7.2-.2.8-.5v-.2s-.1-.3-.1-.3l-.2-.7v-1c.1,0,.5-.9.5-.9l.2-1.1-.3-.8-1.1-1.8h-.1s-.1.3-.1.3l-.2.2h-.5c0,.1-.5.2-.5.2h-.5c0,0-1-.5-1-.5l-1.5-.2-.5-.2-.4-.4v-.4c-.1,0-.1-.5-.1-.5v-.5c0,0-.3-.5-.3-.5h.3s1.1-.5,1.1-.5l-.6-.5v-.2c-.1,0-.1-.3-.1-.3v-.3c0,0,.1-.3.1-.3l-.2-.3.7-.5.6-.2h1.8s1,.3,1,.3h.9c0-.1.3,0,.3,0l.7.2.4-.6v-1.1c.1,0,.3-3.3.3-3.3l.2-1,.3-.9,1.6-2.4.4-1,.2-1v-1.1s-.1-2.2-.1-2.2v-.3c0,0-.2-.2-.2-.2v-.2c0,0,0-.4,0-.4v-.3s.3-.7.3-.7l.2-.5v-.5h0ZM158.2,103.7h-.7c0,.1-.6.5-.6.5l-.5.6-.4.7-.2.8v1.3c-.1,0-.1,1.2-.1,1.2l.3.5.2.2.4.8h-.2c0,0-.4.4-.4.4l-.5.5h-.3c0,0-.3.3-.3.3l-.3.3h-.4c0,0-.2,0-.2,0l-.2.5h-.3s-.1,0-.1,0l-.5,1.1-.2.2-.4.2h0s-.3.1-.3.1l-.9.8-1.4.6-.2.2h-.1s-.7.7-.7.7l-1,.5-.4.4-.4.2-.7.6-.2.8h-.7c0,0-.3-.1-.3-.1l-1.2-.7h0c0-.1.1-.2.1-.2h0v-.3h.3s.1.1.1.1h.1c0,.1,0-.1,0-.1l.3.2.2-.3v-.5c.1,0,.4-.2.4-.2h.2c0,0,.2-.3.2-.3l.2-.3v-.3c.1,0-.2-.2-.2-.2v-.3c-.1,0-.3-.3-.3-.3l-.2-.2.4-.2h.1s0-.3,0-.3h0c0-.1.4-.5.4-.5v-.7c-.1,0-.8-1.4-.8-1.4l-.3-.9v-.8s.3-.5.3-.5h.7c0-.1.5,0,.5,0h.1c0,0,.3.4.3.4h.3s.3-.2.3-.2l1.2-.7.3-.3.2-.7.3-.3.6-.3v-.3c0,0-.1-.4-.1-.4v-.4c0,0-.2-.2-.2-.2l-1-.4h-.3s-.3,0-.3,0h-.2c0,.1-.2.3-.2.3l-.3.2h-.2c0-.1-.2-.4-.2-.4h-.2c0-.1-.3-.5-.3-.5v-2c0,0-.1-.7-.1-.7l-1-1.9-.4-.3.8-.3.8-.5,3-2.6,1.6-1,.2.7v.3c.1,0,.3.3.3.3h.2c0,.1,0,.5,0,.5v.4s-.1.4-.1.4l.2.4v.5c0,0,0,.5,0,.5l-.4.4.3.5-.2.2-.3.2-.2.3h0s0,.1,0,.1v.5c0,0,.2,0,.2,0h.1c0,0,.1.2.1.2l.4.3.6.2h1.2s.2.1.2.1l.5.3h.3c0,0,.3,0,.3,0h.2c0,0,.4-.4.4-.4h.3c0-.1.3-.1.3-.1l1.4.4.2.2h0ZM175,81.9h0c0,0-.4,0-.4,0l-.2.2v.2s.2.1.2.1h.1c0-.1,0-.4,0-.4h.1ZM173.1,82h0l-1.1-.5h-.2s0,.2,0,.2l.3.2.7.2h0c0-.1,0-.2,0-.2h0ZM169.7,83.3h.3v-.2l-.5-.2-1.9.2h-.5c0,.1-.7.4-.7.4l-.5.4.2.4h-.1v.4c.1,0,.5-.5.5-.5l3.3-1h0ZM160.7,84.9l1.9-.4-.8-.4-4.6.2h-.3c0-.1-.3.1-.3.1v.5c-.1,0,.2.5.2.5h.5c0,.1.9-.3.9-.3h.5c0-.1,2-.1,2-.1h0ZM155.1,85.3l.5-.6-2.8.5-.3.2-.3.3-2.6.5h-.4l-.3.3-1,.3-.2.5.2.5h.6l2.6-1.1.7-.2.9-.4h.8s.3-.2.3-.2h0c0-.1,0-.4,0-.4h0c0-.1,1.1-.2,1.1-.2l.5-.2h0ZM146,89.4h.5v-.2h-1c0-.1-1.3.6-1.3.6l-1.2,1.1-.8,1,.6.3.5-.4.4-.6,1.5-1.4.5-.2h.2ZM142.3,93h-.6s-.5.7-.5.7l-.5.9-.9.7-.5.7-.4.9v.8c-.1,0,.2.8.2.8l.7.3.6-.2.4-.8.9-.7.5-.8.3-.5v-.4c.1,0-.3,0-.3,0v-.2l.3-.3v-.5l-.2-.6-.3-.4h0c0-.1,0-.3,0-.3v-.2s-.1-.2-.1-.2h0ZM124.2,136.9h-1.8s-.3-.2-.3-.2h-.3s0,0,0,0l-1.6.2-.7.4v1s.2.3.2.3h.4c0,.1.9,0,.9,0h.1c0,0,.5-.6.5-.6h.3s.2.2.2.2v.2c.1,0,.2.1.2.1l.7.3.3.2v.4c.1,0,.3.4.3.4l.4.3.7.3h.3s1.5-.3,1.5-.3h.3c0-.1.3-.3.3-.3l.2-.3v-.5s-.4-.3-.4-.3l-.8-.2-.2-.2v-.2c-.1,0-.2-.2-.2-.2l-.7-.9-.3-.2h-.4ZM113.2,148.5v.4s0,.7,0,.7v.7s.1.5.1.5v.3c0,0,.5.5.5.5h.3c0,.1.3.3.3.3h.4s.2,0,.2,0h.8c0-.1.1-.1.1-.1h0c0-.1,0-.3,0-.3v-.4s0-.1,0-.1v-.2s.2-.2.2-.2h.3c0,0,.3,0,.3,0l.8-.2h.5s.5,0,.5,0l2.3.7.4.2v.4c0,0,0,.3,0,.3v.3s.3.3.3.3h.2c0,0,0,.1,0,.1h2.2s.3-.1.3-.1h.1s.1-.1.1-.1l.7-.6,2.4-1.2.9-.7.7-1v-.2c0,0,0,0,0,0v-.7c.1,0,.1-.1.1-.1l-.4-.2h-.4s-.1,0-.1,0l-.3.5h-.6s-.1,0-.1,0h-.2c0-.1-.5-.2-.5-.2h-.2c0,0-.2-.3-.2-.3l-.2-.5v-.2c-.1,0-.4-.2-.4-.2l-.4-.2h-.4s-.2.2-.2.2v.6c0,0-.4.3-.4.3l-1.9.8h-.5c0,0-.7-.1-.7-.1h-.8l-.4-.2-.6-.6-1.9-.5-1.2-.7h-.3s-.3.3-.3.3l-3.1,1v.7h0Z"></path></svg>